# xmcd
#
# Track frame offsets:
#	150
#	18221
#	29452
#	39872
#	53476
#	68590
#	79293
#	92090
#	105135
#	116548
#	129195
#
# Disc length: 1912 seconds
#
# Revision: 0
# Processed by: cddbd v1.4PL0 Copyright (c) Steve Scherf et al.
# Submitted via: EasyCDDAExtractor 4.6.0.1
#
DISCID=7307760b
DTITLE=Clan Rojo - México Rojo y Querido
DYEAR=2003
DGENRE=Rojo
TTITLE0=Mario Guerrero - CucuRRucu Paloma
TTITLE1=María Jimena Pereyra - Si nos dejan
TTITLE2=Clan Rojo - Adelita
TTITLE3=Juan David Rodríguez - María Bonita
TTITLE4=Daniel Donoso, Miguel Garcés - México Lindo
TTITLE5=Luis Pedraza - El rey
TTITLE6=Monserrat Bustamante - Jalisco
TTITLE7=Mario Guerrero - No Volveré
TTITLE8=Carolina Soto - La media vuelta
TTITLE9=Nelson Pacheco, Clan Rojo - La carta número trés
TTITLE10=Monserrat Bustamante, Clan Rojo - Las Mañanitas
EXTD=
EXTT0=
EXTT1=
EXTT2=
EXTT3=
EXTT4=
EXTT5=
EXTT6=
EXTT7=
EXTT8=
EXTT9=
EXTT10=
PLAYORDER=
